<svg width="165" height="40" viewBox="0 0 165 40" fill="none" xmlns="http://www.w3.org/2000/svg">
<g clip-path="url(#clip0_104_3883)">
<path d="M49.7693 28.608H61.3698V25.0958H53.8924V11.8665H49.7693V28.608Z" fill="white"/>
<path d="M68.2427 26.2665C66.5888 26.2665 65.7269 24.8148 65.7269 22.6373C65.7269 20.4597 66.5888 18.9846 68.2427 18.9846C69.8965 18.9846 70.7817 20.4597 70.7817 22.6373C70.7817 24.8148 69.8965 26.2665 68.2427 26.2665ZM68.266 28.9826C72.1095 28.9826 74.6252 26.2431 74.6252 22.6373C74.6252 19.0314 72.1095 16.2919 68.266 16.2919C64.4457 16.2919 61.8834 19.0314 61.8834 22.6373C61.8834 26.2431 64.4457 28.9826 68.266 28.9826Z" fill="white"/>
<path d="M81.278 32.7524C83.0484 32.7524 84.6091 32.3543 85.6573 31.4178C86.6124 30.5514 87.2413 29.2402 87.2413 27.4373V16.6197H83.6074V17.9075H83.5608C82.862 16.9007 81.7905 16.2685 80.2065 16.2685C77.2481 16.2685 75.1982 18.7504 75.1982 22.2626C75.1982 25.9387 77.6907 27.9524 80.3695 27.9524C81.8138 27.9524 82.7222 27.367 83.4211 26.5709H83.5142V27.7651C83.5142 29.2168 82.8387 30.0597 81.2314 30.0597C79.9735 30.0597 79.3446 29.5212 79.1349 28.889H75.4545C75.8272 31.3943 77.9935 32.7524 81.278 32.7524ZM81.2547 25.1192C79.8338 25.1192 78.902 23.9485 78.902 22.1456C78.902 20.3192 79.8338 19.1485 81.2547 19.1485C82.8387 19.1485 83.6773 20.5065 83.6773 22.1222C83.6773 23.808 82.9086 25.1192 81.2547 25.1192Z" fill="white"/>
<path d="M94.7133 26.2665C93.0594 26.2665 92.1975 24.8148 92.1975 22.6373C92.1975 20.4597 93.0594 18.9846 94.7133 18.9846C96.3672 18.9846 97.252 20.4597 97.252 22.6373C97.252 24.8148 96.3672 26.2665 94.7133 26.2665ZM94.7366 28.9826C98.5797 28.9826 101.095 26.2431 101.095 22.6373C101.095 19.0314 98.5797 16.2919 94.7366 16.2919C90.9164 16.2919 88.354 19.0314 88.354 22.6373C88.354 26.2431 90.9164 28.9826 94.7366 28.9826Z" fill="white"/>
<path d="M102.205 28.608H106.002V16.6197H102.205V28.608ZM102.205 14.9573H106.002V11.8665H102.205V14.9573Z" fill="white"/>
<path d="M107.649 32.5651H111.446V27.367H111.492C112.238 28.3739 113.333 28.9826 114.87 28.9826C117.992 28.9826 120.065 26.5007 120.065 22.6139C120.065 19.008 118.131 16.2685 114.963 16.2685C113.333 16.2685 112.168 16.9943 111.353 18.0714H111.283V16.6197H107.649V32.5651ZM113.892 26.0324C112.261 26.0324 111.329 24.6978 111.329 22.7543C111.329 20.8109 112.168 19.3358 113.822 19.3358C115.452 19.3358 116.221 20.6939 116.221 22.7543C116.221 24.7914 115.336 26.0324 113.892 26.0324Z" fill="white"/>
<path d="M126.246 28.9826C129.368 28.9826 131.674 27.6246 131.674 25.0022C131.674 21.9348 129.205 21.3963 127.108 21.0451C125.594 20.7641 124.243 20.647 124.243 19.8041C124.243 19.0548 124.965 18.7036 125.897 18.7036C126.945 18.7036 127.667 19.0314 127.807 20.1085H131.301C131.115 17.7436 129.298 16.2685 125.92 16.2685C123.102 16.2685 120.772 17.5797 120.772 20.1085C120.772 22.9183 122.985 23.4802 125.058 23.8314C126.642 24.1124 128.087 24.2295 128.087 25.3065C128.087 26.0792 127.364 26.5007 126.223 26.5007C124.965 26.5007 124.173 25.9153 124.033 24.7212H120.446C120.563 27.367 122.752 28.9826 126.246 28.9826Z" fill="white"/>
<path d="M136.832 28.9592C138.485 28.9592 139.534 28.3036 140.396 27.1329H140.465V28.608H144.099V16.6197H140.302V23.3163C140.302 24.7446 139.51 25.728 138.206 25.728C136.995 25.728 136.412 25.0021 136.412 23.6909V16.6197H132.639V24.487C132.639 27.1563 134.083 28.9592 136.832 28.9592Z" fill="white"/>
<path d="M145.751 28.608H149.548V21.888C149.548 20.4597 150.247 19.4529 151.435 19.4529C152.576 19.4529 153.112 20.2022 153.112 21.49V28.608H156.909V21.888C156.909 20.4597 157.585 19.4529 158.796 19.4529C159.937 19.4529 160.473 20.2022 160.473 21.49V28.608H164.27V20.8109C164.27 18.1182 162.919 16.2685 160.217 16.2685C158.68 16.2685 157.398 16.9241 156.467 18.3758H156.42C155.814 17.088 154.626 16.2685 153.066 16.2685C151.342 16.2685 150.2 17.088 149.455 18.329H149.385V16.6197H145.751V28.608Z" fill="white"/>
<path fill-rule="evenodd" clip-rule="evenodd" d="M19.5102 39.3397C30.2311 39.3397 38.9219 30.6038 38.9219 19.8275C38.9219 9.05127 30.2311 0.315369 19.5102 0.315369C8.78938 0.315369 0.0984497 9.05127 0.0984497 19.8275C0.0984497 30.6038 8.78938 39.3397 19.5102 39.3397ZM22.5064 15.391C24.161 13.7277 24.161 11.031 22.5064 9.36772C20.8516 7.70442 18.1688 7.70442 16.5141 9.36772C14.8594 11.031 14.8594 13.7277 16.5141 15.391L19.5102 18.4026L22.5064 15.391ZM23.9239 22.8392C25.5787 24.5025 28.2615 24.5025 29.9162 22.8392C31.5709 21.1759 31.5709 18.4792 29.9162 16.8159C28.2615 15.1527 25.5787 15.1527 23.9239 16.8159L20.9278 19.8276L23.9239 22.8392ZM22.5064 30.2874C24.161 28.6241 24.161 25.9274 22.5064 24.2641L19.5102 21.2525L16.5141 24.2641C14.8594 25.9274 14.8594 28.6241 16.5141 30.2874C18.1688 31.9507 20.8516 31.9507 22.5064 30.2874ZM9.10418 22.8392C7.44948 21.1759 7.44948 18.4792 9.10418 16.8159C10.759 15.1527 13.4418 15.1527 15.0965 16.8159L18.0926 19.8276L15.0965 22.8392C13.4418 24.5025 10.759 24.5025 9.10418 22.8392Z" fill="white"/>
</g>
<defs>
<clipPath id="clip0_104_3883">
<rect width="165" height="40" fill="white"/>
</clipPath>
</defs>
</svg>
