<svg width="180" height="40" viewBox="0 0 180 40" fill="none" xmlns="http://www.w3.org/2000/svg">
<g clip-path="url(#clip0_104_3867)">
<path d="M54.4575 26.7378H65.8115V23.648H58.2075V9.01257H54.4575V26.7378Z" fill="white"/>
<path d="M73.5044 26.9975C77.5402 26.9975 80.0518 24.2366 80.0518 20.1428C80.0518 16.023 77.5402 13.2708 73.5044 13.2708C69.4686 13.2708 66.9571 16.023 66.9571 20.1428C66.9571 24.2366 69.4686 26.9975 73.5044 26.9975ZM73.5217 24.1413C71.6597 24.1413 70.707 22.4363 70.707 20.1168C70.707 17.7973 71.6597 16.0837 73.5217 16.0837C75.3492 16.0837 76.3017 17.7973 76.3017 20.1168C76.3017 22.4363 75.3492 24.1413 73.5217 24.1413Z" fill="white"/>
<path d="M87.7122 32C91.5143 32 94.2163 30.2689 94.2163 26.8676V13.4439H90.5529V15.6768H90.4144C89.9207 14.5949 88.8382 13.2708 86.6123 13.2708C83.6937 13.2708 81.2255 15.5384 81.2255 20.0649C81.2255 24.4875 83.6245 26.5474 86.621 26.5474C88.7428 26.5474 89.9293 25.4828 90.4144 24.3837H90.5703V26.8156C90.5703 28.6419 89.401 29.3516 87.7988 29.3516C86.1706 29.3516 85.3479 28.6419 85.0448 27.8369L81.6326 28.2957C82.0742 30.3901 84.1267 32 87.7122 32ZM87.7902 23.7778C85.9801 23.7778 84.9928 22.3411 84.9928 20.0476C84.9928 17.7886 85.9629 16.2048 87.7902 16.2048C89.583 16.2048 90.5875 17.7194 90.5875 20.0476C90.5875 22.393 89.5656 23.7778 87.7902 23.7778Z" fill="white"/>
<path d="M102.431 26.9975C106.467 26.9975 108.978 24.2366 108.978 20.1428C108.978 16.023 106.467 13.2708 102.431 13.2708C98.3953 13.2708 95.8836 16.023 95.8836 20.1428C95.8836 24.2366 98.3953 26.9975 102.431 26.9975ZM102.448 24.1413C100.586 24.1413 99.6337 22.4363 99.6337 20.1168C99.6337 17.7973 100.586 16.0837 102.448 16.0837C104.276 16.0837 105.228 17.7973 105.228 20.1168C105.228 22.4363 104.276 24.1413 102.448 24.1413Z" fill="white"/>
<path d="M110.646 26.7378H114.335V13.4439H110.646V26.7378ZM112.499 11.7302C113.599 11.7302 114.5 10.8908 114.5 9.86083C114.5 8.83956 113.599 8 112.499 8C111.408 8 110.507 8.83956 110.507 9.86083C110.507 10.8908 111.408 11.7302 112.499 11.7302Z" fill="white"/>
<path d="M116.559 31.723H120.248V24.6086H120.361C120.872 25.7165 121.989 26.9542 124.136 26.9542C127.169 26.9542 129.532 24.5568 129.532 20.1081C129.532 15.5384 127.064 13.2708 124.145 13.2708C121.92 13.2708 120.855 14.5949 120.361 15.6768H120.196V13.4439H116.559V31.723ZM120.17 20.0908C120.17 17.7194 121.175 16.2048 122.967 16.2048C124.796 16.2048 125.766 17.7886 125.766 20.0908C125.766 22.4103 124.778 24.0201 122.967 24.0201C121.193 24.0201 120.17 22.4623 120.17 20.0908Z" fill="white"/>
<path d="M142.329 17.2347C141.999 14.7854 140.025 13.2708 136.665 13.2708C133.261 13.2708 131.018 14.846 131.026 17.4078C131.018 19.3985 132.273 20.6881 134.872 21.2074L137.176 21.666C138.336 21.8997 138.865 22.3238 138.882 22.9902C138.865 23.7778 138.008 24.3404 136.717 24.3404C135.4 24.3404 134.526 23.7778 134.301 22.696L130.672 22.8864C131.018 25.4308 133.183 26.9975 136.708 26.9975C140.154 26.9975 142.623 25.2405 142.632 22.6181C142.623 20.6967 141.367 19.5456 138.787 19.0176L136.378 18.5329C135.14 18.2646 134.682 17.8406 134.691 17.2001C134.682 16.4039 135.582 15.8846 136.725 15.8846C138.008 15.8846 138.769 16.5856 138.951 17.4424L142.329 17.2347Z" fill="white"/>
<path d="M152.754 21.0775C152.763 22.8605 151.541 23.7951 150.216 23.7951C148.822 23.7951 147.922 22.8172 147.913 21.2505V13.4439H144.224V21.9084C144.231 25.0155 146.051 26.9109 148.727 26.9109C150.728 26.9109 152.165 25.881 152.763 24.323H152.901V26.7378H156.443V13.4439H152.754V21.0775Z" fill="white"/>
<path d="M158.662 26.7378H162.352V18.758C162.352 17.2866 163.288 16.3087 164.517 16.3087C165.729 16.3087 166.543 17.1395 166.543 18.4464V26.7378H170.121V18.6195C170.121 17.2434 170.909 16.3087 172.251 16.3087C173.429 16.3087 174.312 17.0443 174.312 18.5243V26.7378H177.993V17.7973C177.993 14.9152 176.279 13.2708 173.801 13.2708C171.852 13.2708 170.337 14.2661 169.791 15.7893H169.653C169.229 14.2488 167.868 13.2708 166.041 13.2708C164.249 13.2708 162.889 14.2228 162.335 15.7893H162.179V13.4439H158.662V26.7378Z" fill="white"/>
<path d="M17.5736 2.05127H26.8092L23.1021 12.4044C16.5772 13.5502 11.5866 19.859 11.5866 27.4697C11.5866 30.9031 12.6022 34.0715 14.3161 36.6204H2.05269L13.2638 5.31084C13.9687 3.34217 15.6755 2.05127 17.5736 2.05127Z" fill="white"/>
<path d="M32.6542 2.05127H23.4186L27.1101 12.3607C33.7649 13.3797 38.8914 19.7559 38.8914 27.4697C38.8914 30.9031 37.8758 34.0715 36.1619 36.6204H48.1751L36.964 5.31085C36.2591 3.34217 34.5523 2.05127 32.6542 2.05127Z" fill="white"/>
<path d="M15.9265 35.624C14.3482 33.3778 13.4071 30.5466 13.4071 27.4696C13.4071 20.1697 18.7045 14.2521 25.2392 14.2521C31.7739 14.2521 37.0714 20.1697 37.0714 27.4696C37.0714 30.5466 36.1302 33.3778 34.552 35.624C31.961 33.6964 28.7355 32.5533 25.2392 32.5533C21.7429 32.5533 18.5174 33.6964 15.9265 35.624Z" fill="white"/>
</g>
<defs>
<clipPath id="clip0_104_3867">
<rect width="180" height="40" fill="white"/>
</clipPath>
</defs>
</svg>
